<svg xmlns="http://www.w3.org/2000/svg" width="28" height="28" viewBox="0 0 28 28">
    <g fill="#ffffff">
        <path fill="none" d="M12.326 15.674c2.233 2.233 5.021 3.065 5.742 2.344l.392-.392-8.086-8.086-.392.392c-.72.72.11 3.509 2.344 5.742z"/>
        <path fill-rule="#ffffff" d="M10.374 9.82a.28.28 0 0 1-.198-.082L2.902 2.464a.28.28 0 0 1 0-.396l1.22-1.22a1.25 1.25 0 0 1 1.765 0l5.905 5.905a1.25 1.25 0 0 1 0 1.765l-1.22 1.22a.28.28 0 0 1-.198.082zM3.496 2.266l6.878 6.878 1.022-1.022a.69.69 0 0 0 0-.974L5.492 1.244a.69.69 0 0 0-.974 0L3.496 2.266zM25.734 25.18a.28.28 0 0 1-.198-.082l-7.274-7.274a.28.28 0 0 1 0-.396l1.22-1.22a1.25 1.25 0 0 1 1.766 0l5.904 5.905a1.25 1.25 0 0 1 0 1.765l-1.22 1.22a.28.28 0 0 1-.198.082zm-6.878-7.554l6.878 6.878 1.022-1.021a.69.69 0 0 0 0-.974l-5.904-5.905a.69.69 0 0 0-.974 0l-1.022 1.022z"/>
        <path fill-rule="#ffffff" d="M22.297 27.517c-1.143 0-2.622-.446-4.356-1.33-2.86-1.463-6.108-3.943-9.147-6.981-3.042-3.042-5.52-6.29-6.979-9.147C.311 7.11.072 4.898 1.144 3.826l1.758-1.758a.288.288 0 0 1 .396 0l7.274 7.274a.28.28 0 0 1 0 .396l-.392.392c-.514.514.123 3.125 2.344 5.346 2.222 2.221 4.831 2.857 5.346 2.344l.392-.392a.288.288 0 0 1 .396 0l7.274 7.274a.28.28 0 0 1 0 .396l-1.758 1.758c-.441.442-1.076.66-1.877.66zM3.1 2.662l-1.56 1.56c-1.88 1.88 1.623 8.56 7.65 14.588 2.998 2.998 6.197 5.441 9.005 6.878 2.675 1.363 4.71 1.645 5.583.773l1.56-1.56-6.878-6.879-.194.194c-.859.86-3.788.005-6.138-2.344-2.349-2.35-3.203-5.279-2.344-6.138l.194-.194L3.1 2.662z"/>
    </g>
</svg>
